<?xml version="1.0" encoding="UTF-8"?>
<!-- Created with Inkscape (http://www.inkscape.org/) -->
<svg width="401.93" height="264.47" version="1.1" viewBox="0 0 401.93 264.47" xmlns="http://www.w3.org/2000/svg">
 <path d="m267.26 220.02c0-23.729 0.0448-33.437 0.0995-21.572 0.0547 11.865 0.0547 31.279 0 43.144s-0.0995 2.1572-0.0995-21.572zm-167.57 38.568c-0.46464-0.59246-0.45142-0.60567 0.14103-0.14103 0.35954 0.28196 0.6537 0.57613 0.6537 0.65369 0 0.30744-0.30675 0.10957-0.79473-0.51266zm146.29-0.84047c0.37186-0.41089 0.76015-0.74708 0.86287-0.74708 0.10273 0-0.11747 0.33619-0.48932 0.74708-0.37186 0.4109-0.76015 0.74709-0.86287 0.74709-0.10273 0 0.11747-0.33619 0.48932-0.74709zm-114.49-0.88811c0-0.0776 0.29417-0.37173 0.6537-0.6537 0.59245-0.46463 0.60567-0.45142 0.14103 0.14104-0.48798 0.62222-0.79473 0.8201-0.79473 0.51266zm203.58 0c0-0.0776 0.29416-0.37173 0.6537-0.6537 0.59245-0.46463 0.60566-0.45142 0.14103 0.14104-0.48798 0.62222-0.79473 0.8201-0.79473 0.51266zm-45.246-0.88621c-0.46464-0.59245-0.45143-0.60566 0.14103-0.14103 0.35953 0.28197 0.6537 0.57613 0.6537 0.6537 0 0.30744-0.30675 0.10956-0.79473-0.51267zm-1.4942-1.4942c-0.46463-0.59246-0.45142-0.60567 0.14104-0.14103 0.62222 0.48798 0.8201 0.79473 0.51266 0.79473-0.0776 0-0.37173-0.29417-0.6537-0.6537zm48.982 0.13912c0-0.0776 0.29417-0.37173 0.6537-0.65369 0.59246-0.46464 0.60567-0.45143 0.14103 0.14103-0.48798 0.62223-0.79473 0.8201-0.79473 0.51266zm-325.78-2.3804c-0.46464-0.59246-0.45142-0.60567 0.14103-0.14104 0.35953 0.28197 0.6537 0.57613 0.6537 0.6537 0 0.30744-0.30675 0.10956-0.79473-0.51266zm330.69-19.518c0-0.51362 0.0848-0.72374 0.1884-0.46693 0.10363 0.25681 0.10363 0.67704 0 0.93385-0.10362 0.25681-0.1884 0.0467-0.1884-0.46692zm55.551 0.0934c-0.46464-0.59245-0.45143-0.60567 0.14103-0.14103 0.35953 0.28197 0.65369 0.57613 0.65369 0.6537 0 0.30743-0.30674 0.10956-0.79472-0.51267zm-117.9-1.214c0-0.71906 0.0769-1.0132 0.17083-0.65369 0.094 0.35953 0.094 0.94786 0 1.3074-0.0939 0.35953-0.17083 0.0654-0.17083-0.6537zm-237.94-35.754c0.56498-0.0856 1.4895-0.0856 2.0545 0 0.56498 0.0856 0.10272 0.15562-1.0272 0.15562-1.13 0-1.5922-0.07-1.0272-0.15562zm130.72-2.9997c2.6073-0.0641 6.9778-0.0643 9.7121-3.9e-4 2.7343 0.0639 0.60104 0.11637-4.7406 0.11658-5.3416 2.2e-4 -7.5788-0.0521-4.9715-0.11619zm21.321-48.54c0.36344-0.0947 0.86772-0.0885 1.1206 0.0138 0.2529 0.10232-0.0445 0.17981-0.6608 0.1722-0.61635-8e-3 -0.82326-0.0913-0.45982-0.18604zm9.1446 0.0115c0.25681-0.10363 0.67704-0.10363 0.93385 0 0.25681 0.10362 0.0467 0.18841-0.46692 0.18841s-0.72374-0.0848-0.46693-0.18841zm81.152-32.018c0-0.0776 0.29417-0.37173 0.6537-0.65369 0.59246-0.46464 0.60567-0.45143 0.14103 0.14103-0.48798 0.62222-0.79473 0.8201-0.79473 0.51266zm-168.5-1.6333-0.90558-1.0272 1.0272 0.90558c0.96011 0.8464 1.1985 1.1489 0.90558 1.1489-0.0669 0-0.52917-0.46225-1.0272-1.0272zm-4.856-4.856-0.90558-1.0272 1.0272 0.90558c0.96011 0.8464 1.1985 1.1489 0.90558 1.1489-0.0669 0-0.52917-0.46225-1.0272-1.0272zm148.32-21.9c0-0.07757 0.29417-0.37173 0.6537-0.6537 0.59246-0.46464 0.60567-0.45142 0.14103 0.14103-0.48798 0.62222-0.79473 0.8201-0.79473 0.51266zm6.9105-6.9562c0.37186-0.4109 0.76015-0.74708 0.86287-0.74708s-0.11747 0.33619-0.48933 0.74708c-0.37185 0.4109-0.76014 0.74708-0.86287 0.74708-0.10272 0 0.11748-0.33619 0.48933-0.74708zm-189.44-53.603c0.0014-1.6436 0.06703-2.2695 0.14594-1.3909 0.07891 0.87858 0.0778 2.2233-0.0025 2.9883-0.08027 0.765-0.14483 0.04616-0.14347-1.5974zm248.42-2.2412c8.5e-4 -2.2599 0.0624-3.1363 0.13672-1.9475 0.0744 1.1888 0.0737 3.0379-2e-3 4.109-0.0752 1.0711-0.13603 0.09842-0.13519-2.1615zm-218.32-15.409-0.90558-1.0272 1.0272 0.90558c0.56498 0.49807 1.0272 0.96033 1.0272 1.0272 0 0.29296-0.3025 0.054528-1.1489-0.90558zm193.83-5.5781c0.26965-0.1079 0.59183-0.094634 0.71595 0.02949 0.12413 0.12412-0.0965 0.21241-0.49027 0.19619-0.43515-0.017924-0.52366-0.10644-0.22568-0.22568z" fill="#fef8e7"/>
 <path d="m113.84 264.22c0.25681-0.10362 0.67704-0.10362 0.93385 0s0.0467 0.18841-0.46693 0.18841c-0.51362 0-0.72373-0.0848-0.46692-0.18841zm2.2646-8e-3c0.26965-0.10791 0.59183-0.0946 0.71595 0.0295 0.12413 0.12412-0.0965 0.21241-0.49027 0.19619-0.43516-0.0179-0.52367-0.10644-0.22568-0.22568zm111.69 0c0.26965-0.10791 0.59183-0.0946 0.71596 0.0295 0.12412 0.12412-0.0965 0.21241-0.49028 0.19619-0.43515-0.0179-0.52366-0.10644-0.22568-0.22568zm2.6148 0c0.26965-0.10791 0.59183-0.0946 0.71595 0.0295 0.12413 0.12412-0.0965 0.21241-0.49027 0.19619-0.43515-0.0179-0.52367-0.10644-0.22568-0.22568zm145.28 8e-3c0.25681-0.10362 0.67704-0.10362 0.93385 0s0.0467 0.18841-0.46693 0.18841c-0.51362 0-0.72373-0.0848-0.46692-0.18841zm3.1822-0.0115c0.36345-0.0947 0.86773-0.0885 1.1206 0.0138 0.2529 0.10232-0.0445 0.17981-0.66081 0.1722-0.61634-8e-3 -0.82326-0.0913-0.45982-0.18604zm-240.36-1.141c2.5285-0.0647 6.5628-0.0645 8.965 4.4e-4 2.4022 0.065 0.33344 0.11792-4.5973 0.11768-4.9307-2.5e-4 -6.8962-0.0534-4.3677-0.11812zm34.739 0c2.5285-0.0647 6.5628-0.0645 8.965 4.4e-4 2.4022 0.065 0.33344 0.11792-4.5973 0.11768-4.9307-2.5e-4 -6.8962-0.0534-4.3677-0.11812zm80.685 0c2.5285-0.0647 6.5628-0.0645 8.965 4.4e-4 2.4022 0.065 0.33344 0.11792-4.5973 0.11768-4.9307-2.5e-4 -6.8962-0.0534-4.3677-0.11812zm-123.38-5.3239c0.37185-0.41089 0.76015-0.74708 0.86287-0.74708s-0.11747 0.33619-0.48933 0.74708c-0.37185 0.4109-0.76015 0.74709-0.86287 0.74709s0.11747-0.33619 0.48933-0.74709zm205.63-2.0087c0-0.0776 0.29416-0.37173 0.6537-0.6537 0.59245-0.46464 0.60567-0.45142 0.14103 0.14103-0.48798 0.62223-0.79473 0.8201-0.79473 0.51267zm-292.76-7.9622c0.36344-0.0947 0.86772-0.0885 1.1206 0.0138 0.2529 0.10232-0.04446 0.17981-0.6608 0.1722-0.61634-8e-3 -0.82326-0.0913-0.45982-0.18604zm79.02 4e-3c0.26965-0.1079 0.59183-0.0946 0.71596 0.0295 0.12412 0.12413-0.0965 0.21241-0.49028 0.19619-0.43515-0.0179-0.52366-0.10644-0.22568-0.22568zm179.52-2.0795-0.71159-0.84047 0.84047 0.7116c0.78983 0.66871 1.0105 0.96934 0.71159 0.96934-0.0709 0-0.44909-0.37821-0.84047-0.84047zm-186.97-0.56031c-0.46464-0.59246-0.45143-0.60567 0.14103-0.14103 0.62222 0.48798 0.8201 0.79473 0.51266 0.79473-0.0776 0-0.37173-0.29417-0.65369-0.6537zm15.176-0.0934c0.37185-0.41089 0.76015-0.74708 0.86287-0.74708s-0.11748 0.33619-0.48933 0.74708c-0.37186 0.4109-0.76015 0.74709-0.86287 0.74709s0.11747-0.33619 0.48933-0.74709zm113.93-0.37354c0.37185-0.41089 0.76015-0.74708 0.86287-0.74708s-0.11747 0.33619-0.48933 0.74708c-0.37185 0.4109-0.76015 0.74709-0.86287 0.74709s0.11748-0.33619 0.48933-0.74709zm140.22-1.7743c-0.46463-0.59246-0.45142-0.60567 0.14104-0.14104 0.35953 0.28197 0.65369 0.57613 0.65369 0.6537 0 0.30744-0.30674 0.10956-0.79473-0.51266zm-323.29-5.8836c4.73e-4 -3.2872 0.05762-4.5819 0.12699-2.8772 0.06937 1.7047 0.06899 4.3942-8.59e-4 5.9767-0.06985 1.5825-0.1266 0.18771-0.12613-3.0994zm248 0.65387c6.1268-0.0576 16.044-0.0576 22.039 9e-5 5.9946 0.0577 0.98182 0.10481-11.14 0.10476s-17.026-0.0472-10.899-0.10485zm-197.26-19.604-0.0897-18.203-17.743-0.21447 8.8833-0.0863c6.8269-0.0663 8.9248 0.0218 9.0623 0.38063 0.0984 0.25681 0.13349 8.5354 0.078 18.397l-0.10098 17.93zm106.82 13.347c8e-3 -0.61634 0.0913-0.82326 0.18604-0.45981 0.0947 0.36344 0.0885 0.86772-0.0138 1.1206-0.10232 0.2529-0.17981-0.0445-0.1722-0.66081zm30.587-0.0311c0.0179-0.43516 0.10644-0.52367 0.22568-0.22569 0.10791 0.26965 0.0946 0.59183-0.0295 0.71596-0.12412 0.12412-0.21241-0.0965-0.19619-0.49027zm-206.42-8.1868 0.01114-7.8444 35.86-0.012-35.658 0.2051-0.11195 7.7474-0.11195 7.7474zm180.8-5.0428c0.37186-0.41089 0.76015-0.74708 0.86287-0.74708 0.10273 0-0.11747 0.33619-0.48933 0.74708-0.37185 0.4109-0.76014 0.74709-0.86287 0.74709-0.10272 0 0.11748-0.33619 0.48933-0.74709zm20.509-0.0934-0.71159-0.84047 0.84047 0.71159c0.78983 0.66872 1.0105 0.96935 0.71159 0.96935-0.0709 0-0.4491-0.37821-0.84047-0.84047zm66.813-5.0215c0.36344-0.0947 0.86772-0.0885 1.1206 0.0138 0.2529 0.10233-0.0445 0.17981-0.66081 0.1722-0.61634-8e-3 -0.82326-0.0913-0.45981-0.18604zm-63.825-7.3053-0.71159-0.84047 0.84046 0.71159c0.78983 0.66872 1.0105 0.96935 0.71159 0.96935-0.0709 0-0.44909-0.37821-0.84046-0.84047zm112.28-0.79473c0-0.0776 0.29417-0.37173 0.6537-0.65369 0.59246-0.46464 0.60567-0.45143 0.14103 0.14103-0.48798 0.62222-0.79473 0.8201-0.79473 0.51266zm-332.82-2.287c0.48252-0.51362 0.96136-0.93385 1.0641-0.93385s-0.20802 0.42023-0.69054 0.93385c-0.48252 0.51362-0.96136 0.93385-1.0641 0.93385-0.10272 0 0.20802-0.42023 0.69054-0.93385zm111.99-3.0808c2.5285-0.0647 6.5628-0.0645 8.965 4.4e-4 2.4022 0.065 0.33344 0.11792-4.5973 0.11767-4.9307-2.4e-4 -6.8962-0.0534-4.3677-0.11811zm34.739 0c2.5285-0.0647 6.5628-0.0645 8.965 4.4e-4 2.4022 0.065 0.33344 0.11792-4.5973 0.11767-4.9307-2.4e-4 -6.8962-0.0534-4.3677-0.11811zm54.539-1.0966c0.26965-0.10791 0.59183-0.0946 0.71596 0.0295 0.12412 0.12412-0.0965 0.21241-0.49028 0.19619-0.43515-0.0179-0.52366-0.10644-0.22568-0.22568zm2.5914 8e-3c0.25681-0.10362 0.67705-0.10362 0.93386 0 0.25681 0.10363 0.0467 0.18841-0.46693 0.18841-0.51362 0-0.72374-0.0848-0.46693-0.18841zm79.214-8e-3c0.26965-0.10791 0.59183-0.0946 0.71595 0.0295 0.12413 0.12412-0.0965 0.21241-0.49027 0.19619-0.43515-0.0179-0.52366-0.10644-0.22568-0.22568zm2.965 8e-3c0.25681-0.10362 0.67704-0.10362 0.93385 0 0.25681 0.10363 0.0467 0.18841-0.46692 0.18841s-0.72374-0.0848-0.46693-0.18841zm-115.42-54.192c1.0786-0.0755 2.8436-0.0755 3.9222 0 1.0786 0.0754 0.19611 0.13719-1.9611 0.13719s-3.0397-0.0617-1.9611-0.13719zm13.471-0.35332c0.26965-0.10791 0.59183-0.0946 0.71596 0.0295 0.12412 0.12412-0.0965 0.21241-0.49027 0.19619-0.43516-0.0179-0.52367-0.10644-0.22569-0.22568zm-97.255-35.698-1.4766-1.5876 1.5876 1.4766c1.4764 1.3732 1.7592 1.6985 1.4766 1.6985-0.061 0-0.77542-0.7144-1.5876-1.5876zm84.718-0.5562c1.1813-0.0741 3.1144-0.0741 4.2957 0s0.21479 0.13478-2.1479 0.13478-3.3292-0.0606-2.1479-0.13478zm46.693-88.813c4e-3 -0.82179 0.0806-1.114 0.16999-0.64934 0.0893 0.46465 0.086 1.137-8e-3 1.4942-0.0935 0.35714-0.16659-0.02303-0.16245-0.84482zm54.349-18.738c0.25681-0.10362 0.67704-0.10362 0.93385 0s0.0467 0.18841-0.46692 0.18841-0.72374-0.084784-0.46693-0.18841z" fill="#fdf3d1"/>
 <path d="m228.89 264.22c0.25681-0.10362 0.67704-0.10362 0.93385 0s0.0467 0.18841-0.46692 0.18841-0.72374-0.0848-0.46693-0.18841zm148.3 0c0.25681-0.10362 0.67704-0.10362 0.93385 0s0.0467 0.18841-0.46692 0.18841-0.72374-0.0848-0.46693-0.18841zm-225.35-32.811c2e-5 -17.463 0.0457-24.552 0.10158-15.754 0.0558 8.7983 0.0558 23.086-5e-5 31.751-0.0559 8.6648-0.10156 1.4662-0.10153-15.997zm16.809 0c2e-5 -17.463 0.0457-24.552 0.10158-15.754 0.0558 8.7983 0.0558 23.086-5e-5 31.751-0.0559 8.6648-0.10156 1.4662-0.10153-15.997zm40.863 24.56c-0.46463-0.59245-0.45142-0.60566 0.14104-0.14103 0.35953 0.28197 0.65369 0.57613 0.65369 0.6537 0 0.30744-0.30674 0.10956-0.79473-0.51267zm24.258-7.0723c0.26965-0.1079 0.59183-0.0946 0.71595 0.0295 0.12413 0.12413-0.0965 0.21241-0.49027 0.19619-0.43516-0.0179-0.52367-0.10643-0.22568-0.22568zm-191.63-1.1206c0.26965-0.1079 0.59183-0.0946 0.71595 0.0295 0.12412 0.12413-0.0965 0.21241-0.49027 0.19619-0.43515-0.0179-0.52367-0.10644-0.22568-0.22568zm3.1589-4e-3c0.36344-0.0947 0.86772-0.0885 1.1206 0.0138 0.2529 0.10232-0.04446 0.17981-0.66081 0.1722-0.61634-8e-3 -0.82326-0.0913-0.45982-0.18604zm76.032 4e-3c0.26965-0.1079 0.59183-0.0946 0.71595 0.0295 0.12413 0.12413-0.0965 0.21241-0.49027 0.19619-0.43515-0.0179-0.52367-0.10644-0.22568-0.22568zm2.2412 0c0.26965-0.1079 0.59183-0.0946 0.71596 0.0295 0.12412 0.12413-0.0965 0.21241-0.49027 0.19619-0.43516-0.0179-0.52367-0.10644-0.22569-0.22568zm-97.261-6.9355-1.0971-1.214 1.214 1.0971c1.1316 1.0227 1.3857 1.3309 1.0971 1.3309-0.06429 0-0.61059-0.54631-1.214-1.214zm85.407-4.2335c0.0179-0.43516 0.10643-0.52367 0.22568-0.22568 0.1079 0.26965 0.0946 0.59183-0.0295 0.71595-0.12413 0.12412-0.21241-0.0965-0.19619-0.49027zm106.83-3.7354c0.0179-0.43515 0.10644-0.52367 0.22568-0.22568 0.10791 0.26965 0.0946 0.59183-0.0295 0.71595-0.12412 0.12413-0.21241-0.0965-0.19619-0.49027zm30.66-0.15564c0-0.51362 0.0848-0.72374 0.18841-0.46693 0.10363 0.25681 0.10363 0.67704 0 0.93385-0.10362 0.25681-0.18841 0.0467-0.18841-0.46692zm0-2.6148c0-0.51362 0.0848-0.72373 0.18841-0.46692 0.10363 0.2568 0.10363 0.67704 0 0.93385-0.10362 0.25681-0.18841 0.0467-0.18841-0.46693zm-30.66-0.2179c0.0179-0.43515 0.10644-0.52366 0.22568-0.22568 0.10791 0.26965 0.0946 0.59183-0.0295 0.71595-0.12412 0.12413-0.21241-0.0965-0.19619-0.49027zm-17.93-2.2412c0.0179-0.43516 0.10644-0.52367 0.22568-0.22568 0.10791 0.26965 0.0946 0.59183-0.0295 0.71595-0.12412 0.12412-0.21241-0.0965-0.19619-0.49027zm169.21-10.459c0.0179-0.43515 0.10644-0.52366 0.22568-0.22568 0.1079 0.26965 0.0946 0.59183-0.0295 0.71596-0.12413 0.12412-0.21241-0.0965-0.19619-0.49028zm-136.09-3.3914c0.25681-0.10363 0.67704-0.10363 0.93385 0 0.25681 0.10362 0.0467 0.1884-0.46692 0.1884s-0.72374-0.0848-0.46693-0.1884zm141.6-1.1284c0.26965-0.1079 0.59183-0.0946 0.71596 0.0295 0.12412 0.12413-0.0965 0.21241-0.49028 0.19619-0.43515-0.0179-0.52366-0.10643-0.22568-0.22568zm1.8444 8e-3c0.25681-0.10362 0.67704-0.10362 0.93385 0 0.25681 0.10363 0.0467 0.18841-0.46692 0.18841s-0.72374-0.0848-0.46693-0.18841zm-18.957-6.6174c0-0.0776 0.29417-0.37173 0.6537-0.65369 0.59245-0.46464 0.60567-0.45143 0.14103 0.14103-0.48798 0.62223-0.79473 0.8201-0.79473 0.51266zm21.222-7.2114c0.26965-0.10791 0.59183-0.0946 0.71596 0.0295 0.12412 0.12412-0.0965 0.21241-0.49028 0.19619-0.43515-0.0179-0.52366-0.10644-0.22568-0.22568zm-150.56-0.36576c0.25681-0.10362 0.67704-0.10362 0.93385 0 0.25681 0.10363 0.0467 0.18841-0.46692 0.18841s-0.72374-0.0848-0.46693-0.18841zm81.999-0.0115c0.36344-0.0947 0.86772-0.0885 1.1206 0.0138 0.2529 0.10232-0.0445 0.17981-0.66081 0.1722-0.61634-8e-3 -0.82326-0.0913-0.45981-0.18604zm-263.14-19.421c0.26965-0.10791 0.59183-0.0946 0.71595 0.0295 0.12412 0.12412-0.0965 0.21241-0.49027 0.19619-0.43515-0.0179-0.52367-0.10644-0.22568-0.22568zm140.82-35.113c0.26965-0.10791 0.59183-0.0946 0.71596 0.0295 0.12412 0.12412-0.0965 0.21241-0.49028 0.19619-0.43515-0.0179-0.52366-0.10644-0.22568-0.22568zm20.918 0c0.26965-0.10791 0.59183-0.0946 0.71596 0.0295 0.12412 0.12412-0.0965 0.21241-0.49028 0.19619-0.43515-0.0179-0.52366-0.10644-0.22568-0.22568zm-14.771-36.237c0.36344-0.0947 0.86772-0.0885 1.1206 0.0139 0.2529 0.10232-0.0445 0.17981-0.6608 0.17219-0.61634-8e-3 -0.82326-0.0913-0.45982-0.18604zm10.078 1e-3c0.35954-0.0939 0.94786-0.0939 1.3074 0 0.35953 0.094 0.0654 0.17083-0.6537 0.17083-0.71906 0-1.0132-0.0769-0.6537-0.17083zm-66.037-25.984-1.8537-1.9611 1.9611 1.8537c1.0786 1.0195 1.9611 1.902 1.9611 1.9611 0 0.27873-0.34606-0.03138-2.0685-1.8537zm116.65-47.22c0.25681-0.10362 0.67704-0.10362 0.93385 0s0.0467 0.18841-0.46692 0.18841-0.72374-0.08478-0.46693-0.18841zm-5.3584-2.8343-0.71159-0.84047 0.84047 0.71159c0.46226 0.39138 0.84047 0.76958 0.84047 0.84047 0 0.29893-0.30063 0.07824-0.96935-0.71159zm-173.07-0.49806c0.01792-0.43515 0.10644-0.52367 0.22568-0.22568 0.1079 0.26965 0.09463 0.59183-0.02949 0.71595-0.12412 0.12412-0.21241-0.0965-0.19619-0.49027zm228.88-30.668c0.26965-0.1079 0.59183-0.094634 0.71596 0.02949 0.12412 0.12412-0.0965 0.21241-0.49028 0.19619-0.43515-0.017924-0.52366-0.10644-0.22568-0.22568zm-40.716-0.37354c0.26965-0.1079 0.59183-0.094634 0.71595 0.02949 0.12413 0.12412-0.0965 0.21241-0.49027 0.19619-0.43515-0.017924-0.52367-0.10644-0.22568-0.22568zm31.172-0.012875c0.56781-0.08586 1.4083-0.083566 1.8677 0.005099 0.45943 0.088664-5e-3 0.15891-1.0324 0.15611-1.0272-0.002804-1.4031-0.075348-0.83533-0.16121z" fill="#fdebaf"/>
 <path d="m133.87 258.68c7.4e-4 -2.4654 0.0612-3.4253 0.13435-2.1332 0.0731 1.2921 0.0725 3.3092-1e-3 4.4825-0.0739 1.1733-0.13374 0.11611-0.133-2.3493zm52.705-27.268c2e-5 -17.463 0.0457-24.552 0.10158-15.754 0.0558 8.7983 0.0558 23.086-5e-5 31.751-0.0559 8.6648-0.10156 1.4662-0.10153-15.997zm190.98 18.99c0.25681-0.10363 0.67704-0.10363 0.93385 0 0.25681 0.10362 0.0467 0.18841-0.46692 0.18841s-0.72374-0.0848-0.46693-0.18841zm-64.992-0.39034c0.46465-0.0893 1.137-0.086 1.4942 8e-3 0.35714 0.0935-0.023 0.1666-0.84482 0.16246-0.82179-4e-3 -1.114-0.0806-0.64934-0.16999zm-79.919-1.1116c0.26964-0.1079 0.59182-0.0946 0.71595 0.0295 0.12412 0.12413-0.0965 0.21241-0.49027 0.19619-0.43516-0.0179-0.52367-0.10643-0.22568-0.22568zm2.2412 0c0.26965-0.1079 0.59183-0.0946 0.71595 0.0295 0.12413 0.12413-0.0965 0.21241-0.49027 0.19619-0.43515-0.0179-0.52367-0.10643-0.22568-0.22568zm-141.06-6.2818c0.0076-0.61634 0.09133-0.82326 0.18604-0.45982 0.09471 0.36345 0.08848 0.86773-0.01384 1.1206-0.10232 0.25289-0.17981-0.0445-0.1722-0.66081zm247.99-5.6342c0.0179-0.43516 0.10644-0.52367 0.22569-0.22568 0.1079 0.26965 0.0946 0.59183-0.0295 0.71595-0.12413 0.12413-0.21242-0.0965-0.1962-0.49027zm-207.92-19.393c7e-5 -9.8615 0.0483-13.842 0.10717-8.8458 0.0589 4.9963 0.0588 13.065-1.3e-4 17.93-0.0589 4.8652-0.10712 0.77729-0.10704-9.0842zm66.721 16.405c0.0179-0.43515 0.10644-0.52367 0.22568-0.22568 0.10791 0.26965 0.0946 0.59183-0.0295 0.71595-0.12412 0.12413-0.21241-0.0965-0.19619-0.49027zm0-5.2296c0.0179-0.43515 0.10644-0.52367 0.22568-0.22568 0.10791 0.26965 0.0946 0.59183-0.0295 0.71595-0.12412 0.12413-0.21241-0.0965-0.19619-0.49027zm-200.59-2.9883c0.017924-0.43515 0.10644-0.52366 0.22568-0.22568 0.1079 0.26965 0.094634 0.59183-0.02949 0.71596-0.12412 0.12412-0.21241-0.0965-0.19619-0.49028zm232.62-11.991c0.26964-0.1079 0.59182-0.0946 0.71595 0.0295 0.12412 0.12413-0.0965 0.21241-0.49027 0.19619-0.43516-0.0179-0.52367-0.10643-0.22568-0.22568zm55.728-5.1154c0-0.0776 0.29417-0.37173 0.6537-0.6537 0.59245-0.46463 0.60567-0.45142 0.14103 0.14104-0.48798 0.62222-0.79473 0.8201-0.79473 0.51266zm44.05-2.0068-0.90558-1.0272 1.0272 0.90558c0.56498 0.49807 1.0272 0.96032 1.0272 1.0272 0 0.29296-0.3025 0.0545-1.1489-0.90558zm-122.68-0.0934c0.37186-0.4109 0.76015-0.74708 0.86287-0.74708 0.10273 0-0.11747 0.33618-0.48933 0.74708-0.37185 0.41089-0.76014 0.74708-0.86287 0.74708-0.10272 0 0.11748-0.33619 0.48933-0.74708zm165.39-7.7297c0.36345-0.0947 0.86773-0.0885 1.1206 0.0138 0.2529 0.10232-0.0445 0.17981-0.66081 0.1722-0.61634-8e-3 -0.82326-0.0913-0.45982-0.18604zm2.7944 0.0115c0.25681-0.10362 0.67704-0.10362 0.93385 0 0.25681 0.10363 0.0467 0.18841-0.46692 0.18841s-0.72374-0.0848-0.46693-0.18841zm-337.66-19.805c0.26965-0.10791 0.59183-0.0946 0.71595 0.0295 0.12412 0.12412-0.0965 0.21241-0.49027 0.19619-0.43515-0.0179-0.52367-0.10644-0.22568-0.22568zm6.3502 0c0.26965-0.10791 0.59183-0.0946 0.71595 0.0295 0.12412 0.12412-0.0965 0.21241-0.49027 0.19619-0.43515-0.0179-0.52367-0.10644-0.22568-0.22568zm126.44-2.2654c2.6314-0.0643 6.8338-0.0641 9.3385 4.1e-4 2.5048 0.0645 0.35179 0.11714-4.7844 0.11691-5.1362-2.3e-4 -7.1856-0.053-4.5541-0.11732zm80.871 6e-5c2.5285-0.0647 6.5628-0.0645 8.965 4.5e-4 2.4022 0.065 0.33344 0.11791-4.5973 0.11767s-6.8962-0.0534-4.3677-0.11812zm-64.247-32.848c0.26965-0.10791 0.59183-0.0946 0.71595 0.0295 0.12412 0.12412-0.0965 0.21241-0.49027 0.19619-0.43516-0.0179-0.52367-0.10644-0.22568-0.22568zm18.677 0c0.26965-0.10791 0.59183-0.0946 0.71595 0.0295 0.12413 0.12412-0.0965 0.21241-0.49027 0.19619-0.43515-0.0179-0.52367-0.10644-0.22568-0.22568zm79.261-35.044c0.48252-0.51362 0.96136-0.93386 1.0641-0.93386s-0.20802 0.42024-0.69054 0.93386-0.96135 0.93385-1.0641 0.93385c-0.10272 0 0.20802-0.42023 0.69054-0.93385zm-94.599-1.1812c0.25681-0.10363 0.67704-0.10363 0.93385 0 0.25681 0.10362 0.0467 0.1884-0.46693 0.1884-0.51361 0-0.72373-0.0848-0.46692-0.1884zm13.844-8e-3c0.26965-0.1079 0.59182-0.0946 0.71595 0.0295 0.12412 0.12413-0.0965 0.21241-0.49027 0.19619-0.43516-0.0179-0.52367-0.10643-0.22568-0.22568zm84.49-2.5006c0-0.0776 0.29416-0.37173 0.65369-0.6537 0.59246-0.46464 0.60567-0.45142 0.14104 0.14103-0.48799 0.62223-0.79473 0.8201-0.79473 0.51267zm-150.21-21.057c-0.46464-0.59246-0.45143-0.60567 0.14103-0.14103 0.62222 0.48798 0.8201 0.79473 0.51266 0.79473-0.0776 0-0.37173-0.29416-0.65369-0.6537zm121.82-3.5963c0-0.07757 0.29417-0.37173 0.6537-0.6537 0.59246-0.46464 0.60567-0.45142 0.14103 0.14103-0.48798 0.62222-0.79473 0.8201-0.79473 0.51266zm-126.68-1.2597c-0.46464-0.59246-0.45143-0.60567 0.14103-0.14103 0.35953 0.28197 0.65369 0.57613 0.65369 0.6537 0 0.30744-0.30674 0.10956-0.79472-0.51266zm-59.316-49.245c0.01792-0.43515 0.10644-0.52367 0.22568-0.22568 0.1079 0.26965 0.09463 0.59183-0.02949 0.71595-0.12412 0.12412-0.21241-0.0965-0.19619-0.49027zm247.66-0.37354c0.0179-0.43515 0.10644-0.52367 0.22569-0.22568 0.1079 0.26965 0.0946 0.59183-0.0295 0.71595-0.12413 0.12412-0.21241-0.0965-0.1962-0.49027zm-22.068-11.135c0-0.08074 0.26087-0.24691 0.57972-0.36926 0.33242-0.12756 0.48236-0.06494 0.35149 0.14681-0.21936 0.35494-0.93121 0.52499-0.93121 0.22246zm2.1712-18.038c0.26965-0.1079 0.59183-0.094634 0.71595 0.02949 0.12413 0.12412-0.0965 0.21241-0.49027 0.19619-0.43515-0.017924-0.52367-0.10644-0.22568-0.22568zm-38.12-0.38256c0.46465-0.089348 1.137-0.085956 1.4942 0.007538 0.35713 0.093494-0.023 0.1666-0.84483 0.16245-0.82179-0.004146-1.114-0.080642-0.64934-0.16999zm23.541-0.011633c1.0855-0.075695 2.7664-0.074899 3.7354 0.0017684 0.96899 0.076668 0.0809 0.1386-1.9736 0.13763-2.0545-9.7261e-4 -2.8473-0.063701-1.7618-0.1394z" fill="#fce38e"/>
 <path d="m40.272 264.21c0.26965-0.10791 0.59183-0.0946 0.71595 0.0295 0.12412 0.12412-0.0965 0.21241-0.49027 0.19619-0.43515-0.0179-0.52367-0.10644-0.22568-0.22568zm5.9767 0c0.26965-0.10791 0.59183-0.0946 0.71595 0.0295 0.12412 0.12412-0.0965 0.21241-0.49027 0.19619-0.43515-0.0179-0.52367-0.10644-0.22568-0.22568zm264.09 0c0.26965-0.10791 0.59183-0.0946 0.71596 0.0295 0.12412 0.12412-0.0965 0.21241-0.49028 0.19619-0.43515-0.0179-0.52366-0.10644-0.22568-0.22568zm5.2296 0c0.26965-0.10791 0.59182-0.0946 0.71595 0.0295 0.12412 0.12412-0.0965 0.21241-0.49027 0.19619-0.43516-0.0179-0.52367-0.10644-0.22568-0.22568zm-215.67-5.8149-1.0971-1.214 1.214 1.0971c0.66771 0.60341 1.214 1.1497 1.214 1.214 0 0.28859-0.30822 0.0345-1.3309-1.0971zm145.89-0.84047c0.69695-0.71906 1.3512-1.3074 1.454-1.3074s-0.38346 0.58833-1.0804 1.3074c-0.69694 0.71907-1.3512 1.3074-1.4539 1.3074s0.38346-0.58833 1.0804-1.3074zm-234.04-5.5097-1.4766-1.5876 1.5875 1.4766c0.87315 0.81213 1.5875 1.5265 1.5875 1.5876 0 0.28262-0.3253-1.8e-4 -1.6985-1.4766zm66.867-18.584c0-9.9642 0.04814-14.04 0.10698-9.0584 0.05884 4.9821 0.05884 13.135 0 18.117-0.05884 4.9821-0.10698 0.90584-0.10698-9.0584zm297.84 16.928c0.26965-0.10791 0.59183-0.0946 0.71596 0.0295 0.12412 0.12412-0.0965 0.21241-0.49027 0.19619-0.43516-0.0179-0.52367-0.10644-0.22569-0.22568zm2.6148 0c0.26965-0.10791 0.59183-0.0946 0.71595 0.0295 0.12413 0.12412-0.0965 0.21241-0.49027 0.19619-0.43515-0.0179-0.52366-0.10644-0.22568-0.22568zm-64.249-0.37354c0.26965-0.10791 0.59183-0.0946 0.71596 0.0295 0.12412 0.12412-0.0965 0.21241-0.49028 0.19619-0.43515-0.0179-0.52366-0.10644-0.22568-0.22568zm14.59-5.6281c-0.46464-0.59246-0.45143-0.60567 0.14103-0.14103 0.35953 0.28196 0.6537 0.57612 0.6537 0.65369 0 0.30744-0.30675 0.10956-0.79473-0.51266zm-235.48-23.626c0-11.608 0.04737-16.356 0.10526-10.553 0.05789 5.8039 0.05789 15.301 0 21.105s-0.10526 1.0552-0.10526-10.553zm39.853 15.315c0-0.51361 0.0848-0.72373 0.18841-0.46692 0.10362 0.25681 0.10362 0.67704 0 0.93385-0.10363 0.25681-0.18841 0.0467-0.18841-0.46693zm208.03-0.21789c0.0179-0.43516 0.10644-0.52367 0.22569-0.22569 0.1079 0.26965 0.0946 0.59183-0.0295 0.71596-0.12413 0.12412-0.21242-0.0965-0.1962-0.49027zm-141.11-4.4514c2e-3 -1.2327 0.0718-1.6919 0.15497-1.0205 0.0831 0.67138 0.0814 1.6799-4e-3 2.2412-0.0852 0.5613-0.15325 0.012-0.15115-1.2207zm141.11-1.8988c0.0179-0.43515 0.10644-0.52367 0.22569-0.22568 0.1079 0.26965 0.0946 0.59183-0.0295 0.71595-0.12413 0.12413-0.21242-0.0965-0.1962-0.49027zm-61.634-1.1206c0.0179-0.43515 0.10644-0.52367 0.22568-0.22568 0.10791 0.26965 0.0946 0.59183-0.0295 0.71595-0.12412 0.12413-0.21241-0.0965-0.19619-0.49027zm22.196-1.9164c12.316-0.2625 22.513-0.26867 22.355-0.0135-0.0955 0.15408-6.257 0.24345-13.692 0.19858-7.4353-0.0449-11.334-0.12814-8.6628-0.18507zm-302.35-7.4221c0.017924-0.43516 0.10644-0.52367 0.22568-0.22568 0.1079 0.26965 0.094634 0.59183-0.02949 0.71595-0.12412 0.12412-0.21241-0.0965-0.19619-0.49027zm370.52-4.4056c0-0.0776 0.29416-0.37173 0.6537-0.65369 0.59245-0.46464 0.60567-0.45143 0.14103 0.14103-0.48798 0.62222-0.79473 0.8201-0.79473 0.51266zm-122.2-7.2364c-0.46463-0.59245-0.45142-0.60566 0.14104-0.14103 0.62222 0.48798 0.8201 0.79473 0.51266 0.79473-0.0776 0-0.37173-0.29416-0.6537-0.6537zm128.48-8.5664c0.26965-0.10791 0.59182-0.0946 0.71595 0.0295 0.12412 0.12412-0.0965 0.21241-0.49027 0.19619-0.43516-0.0179-0.52367-0.10644-0.22568-0.22568zm-364.51-7.4024c0.69695-0.71906 1.3512-1.3074 1.4539-1.3074s-0.38346 0.58833-1.0804 1.3074c-0.69695 0.71907-1.3512 1.3074-1.4539 1.3074-0.10272 0 0.38346-0.58833 1.0804-1.3074zm155.93-6.537c0-4.4171 0.054-6.2241 0.12008-4.0156 0.066 2.2086 0.066 5.8226 0 8.0311s-0.12008 0.40156-0.12008-4.0156zm-125.95-5.8752c0.77043-0.0806 2.0311-0.0806 2.8016 0 0.77043 0.0806 0.14008 0.14653-1.4008 0.14653s-2.1712-0.0659-1.4008-0.14653zm164.54-35.088c0.25681-0.10363 0.67704-0.10363 0.93385 0 0.25681 0.10362 0.0467 0.18841-0.46692 0.18841s-0.72374-0.0848-0.46693-0.18841zm76.669-31.271c0-0.0776 0.29416-0.37173 0.6537-0.65369 0.59245-0.46464 0.60567-0.45143 0.14103 0.14103-0.48798 0.62222-0.79473 0.8201-0.79473 0.51266zm-166.65-1.2597c-0.46464-0.59246-0.45142-0.60567 0.14103-0.14104 0.62223 0.48799 0.8201 0.79473 0.51267 0.79473-0.0776 0-0.37173-0.29416-0.6537-0.65369zm91.122-3.7104c0.26965-0.1079 0.59183-0.0946 0.71595 0.0295 0.12413 0.12413-0.0965 0.21241-0.49027 0.19619-0.43515-0.0179-0.52367-0.10643-0.22568-0.22568zm81.875-1.0522c0.69694-0.71906 1.3512-1.3074 1.4539-1.3074s-0.38346 0.58833-1.0804 1.3074c-0.69695 0.71907-1.3512 1.3074-1.454 1.3074s0.38346-0.58832 1.0804-1.3074zm-179.52-1.7743-0.71159-0.84046 0.84047 0.71159c0.78983 0.66872 1.0105 0.96934 0.71159 0.96934-0.0709 0-0.44909-0.37821-0.84047-0.84047zm31.926-19.611c-0.46464-0.59246-0.45142-0.60567 0.14103-0.14103 0.62223 0.48798 0.8201 0.79473 0.51267 0.79473-0.0776 0-0.37174-0.29416-0.6537-0.6537zm119.02-3.0817c0.80246-0.82179 1.5431-1.4942 1.6458-1.4942 0.10273 0-0.46978 0.67237-1.2722 1.4942s-1.5431 1.4942-1.6458 1.4942c-0.10273 0 0.46978-0.67237 1.2722-1.4942zm2.8016-2.7317c0-0.06429 0.5463-0.61059 1.214-1.214l1.214-1.0971-1.0971 1.214c-1.0227 1.1316-1.3309 1.3857-1.3309 1.0971zm-128.92-1.2839c-0.46463-0.59246-0.45142-0.60567 0.14104-0.14103 0.62222 0.48798 0.8201 0.79473 0.51266 0.79473-0.0776 0-0.37173-0.29416-0.6537-0.6537zm-58.195-49.245c0.01792-0.43515 0.10644-0.52367 0.22568-0.22568 0.1079 0.26965 0.09463 0.59183-0.02949 0.71595-0.12412 0.12412-0.21241-0.0965-0.19619-0.49027zm247.69-0.52918c0-0.51362 0.0848-0.72374 0.18841-0.46693 0.10363 0.25681 0.10363 0.67704 0 0.93385-0.10362 0.25681-0.18841 0.04669-0.18841-0.46693zm-0.0295-14.412c0.0179-0.43515 0.10644-0.52367 0.22569-0.22568 0.1079 0.26965 0.0946 0.59183-0.0295 0.71595-0.12413 0.12412-0.21241-0.0965-0.1962-0.49027zm-242.64-8c0.37186-0.41089 0.76015-0.74708 0.86287-0.74708s-0.11747 0.33619-0.48933 0.74708c-0.37186 0.4109-0.76015 0.74708-0.86287 0.74708s0.11747-0.33619 0.48933-0.74708zm11.86-5.1135c0.35953-0.093956 0.94786-0.093956 1.3074 0s0.06537 0.17083-0.6537 0.17083-1.0132-0.076873-0.6537-0.17083zm175.2-0.74845c0.36344-0.094709 0.86772-0.08848 1.1206 0.013841 0.2529 0.10232-0.0445 0.17981-0.6608 0.1722-0.61634-0.007613-0.82326-0.09133-0.45982-0.18604zm16.989-0.00476c0.46226-0.089035 1.2187-0.089035 1.6809 0 0.46225 0.089034 0.084 0.16188-0.84047 0.16188-0.92452 0-1.3027-0.072846-0.84047-0.16188z" fill="#fbdb6c"/>
 <path d="m41.564 264.21c0.36344-0.0947 0.86772-0.0885 1.1206 0.0138 0.2529 0.10232-0.04446 0.17981-0.66081 0.1722-0.61634-8e-3 -0.82326-0.0913-0.45982-0.18604zm2.9883 0c0.36344-0.0947 0.86772-0.0885 1.1206 0.0138 0.2529 0.10232-0.04446 0.17981-0.66081 0.1722-0.61634-8e-3 -0.82326-0.0913-0.45982-0.18604zm266.89 0.0115c0.25681-0.10362 0.67704-0.10362 0.93385 0s0.0467 0.18841-0.46692 0.18841-0.72374-0.0848-0.46693-0.18841zm2.6148 0c0.2568-0.10362 0.67704-0.10362 0.93385 0s0.0467 0.18841-0.46693 0.18841c-0.51362 0-0.72373-0.0848-0.46692-0.18841zm-64.759-5.7293c0-2.5681 0.0597-3.6187 0.13262-2.3346 0.0729 1.284 0.0729 3.3852 0 4.6693-0.0729 1.284-0.13262 0.23346-0.13262-2.3346zm-118.74-1.1206c0.80246-0.82179 1.5431-1.4942 1.6458-1.4942 0.10273 0-0.46978 0.67237-1.2722 1.4942s-1.5431 1.4942-1.6458 1.4942c-0.10273 0 0.46978-0.67238 1.2722-1.4942zm205.63-2.0545c0.69695-0.71907 1.3512-1.3074 1.454-1.3074 0.10272 0-0.38346 0.58832-1.0804 1.3074-0.69694 0.71906-1.3512 1.3074-1.4539 1.3074-0.10273 0 0.38345-0.58833 1.0804-1.3074zm-46.903-0.28016-1.0971-1.214 1.214 1.0971c1.1316 1.0227 1.3857 1.3309 1.0971 1.3309-0.0643 0-0.61059-0.5463-1.214-1.214zm44.24-6.9105c-0.46464-0.59246-0.45143-0.60567 0.14103-0.14104 0.35953 0.28197 0.6537 0.57613 0.6537 0.6537 0 0.30744-0.30675 0.10956-0.79473-0.51266zm-31.751-2.2412c-0.46464-0.59245-0.45143-0.60567 0.14103-0.14103 0.35953 0.28196 0.65369 0.57613 0.65369 0.6537 0 0.30743-0.30674 0.10956-0.79472-0.51267zm-171.78-0.23442c0-0.0776 0.29416-0.37173 0.65369-0.65369 0.59246-0.46464 0.60567-0.45143 0.14104 0.14103-0.48799 0.62223-0.79473 0.8201-0.79473 0.51266zm113.93-0.37354c0-0.0776 0.29416-0.37173 0.6537-0.65369 0.59245-0.46464 0.60566-0.45143 0.14103 0.14103-0.48798 0.62222-0.79473 0.8201-0.79473 0.51266zm157.66-0.4504c0.0179-0.43516 0.10644-0.52367 0.22568-0.22568 0.10791 0.26964 0.0946 0.59182-0.0295 0.71595-0.12412 0.12412-0.21241-0.0965-0.19619-0.49027zm0-2.2412c0.0179-0.43515 0.10644-0.52367 0.22568-0.22568 0.10791 0.26965 0.0946 0.59183-0.0295 0.71595-0.12412 0.12413-0.21241-0.0965-0.19619-0.49027zm-4.5402-10.148-0.90558-1.0272 1.0272 0.90558c0.56498 0.49807 1.0272 0.96033 1.0272 1.0272 0 0.29296-0.30249 0.0545-1.1489-0.90558zm-37.747-0.74708c-0.46464-0.59246-0.45143-0.60567 0.14103-0.14103 0.62222 0.48798 0.8201 0.79473 0.51266 0.79473-0.0776 0-0.37173-0.29417-0.65369-0.6537zm-311.74-0.7462c2.6314-0.0643 6.8338-0.0641 9.3385 4.1e-4 2.5048 0.0645 0.3518 0.11714-4.7844 0.11691-5.1362-2.2e-4 -7.1855-0.053-4.5541-0.11732zm-47.482-7.3783c0.0076126-0.61635 0.09133-0.82326 0.18604-0.45982 0.094709 0.36344 0.08848 0.86772-0.013841 1.1206-0.10232 0.2529-0.17981-0.0445-0.1722-0.6608zm18.711-1.8677c0.0028-1.0272 0.07535-1.4031 0.16121-0.83533 0.08586 0.56781 0.08357 1.4083-0.0051 1.8677-0.08866 0.45943-0.15891-5e-3 -0.15611-1.0324zm-18.725-1.3074c0-0.51362 0.084784-0.72374 0.18841-0.46693s0.10362 0.67705 0 0.93386c-0.10362 0.2568-0.18841 0.0467-0.18841-0.46693zm353.78-1.3074c4e-3 -0.82179 0.0806-1.114 0.16999-0.64935 0.0893 0.46466 0.086 1.137-8e-3 1.4942-0.0935 0.35714-0.16659-0.023-0.16245-0.84482zm17.041 0.65369c-0.46463-0.59245-0.45142-0.60567 0.14104-0.14103 0.62222 0.48798 0.8201 0.79473 0.51266 0.79473-0.0776 0-0.37173-0.29416-0.6537-0.6537zm-147.87-1.355c0-0.0776 0.29417-0.37173 0.6537-0.65369 0.59245-0.46464 0.60567-0.45143 0.14103 0.14103-0.48798 0.62222-0.79473 0.8201-0.79473 0.51266zm21.244-0.51266c-0.46463-0.59246-0.45142-0.60567 0.14104-0.14103 0.35953 0.28196 0.65369 0.57612 0.65369 0.65369 0 0.30744-0.30674 0.10956-0.79473-0.51266zm5.0746-25.307c9e-5 -8.6288 0.0491-12.105 0.10889-7.7258 0.0598 4.3796 0.0597 11.44-1.6e-4 15.689-0.0599 4.2492-0.10882 0.66591-0.10873-7.9629zm-2.6224 13.167-1.0971-1.214 1.214 1.0971c1.1316 1.0227 1.3857 1.3309 1.0971 1.3309-0.0643 0-0.61058-0.5463-1.214-1.214zm-220.37-3.2685c0.37186-0.4109 0.76015-0.74708 0.86287-0.74708 0.10272 0-0.11748 0.33618-0.48933 0.74708-0.37186 0.41089-0.76015 0.74708-0.86287 0.74708s0.11748-0.33619 0.48933-0.74708zm160.59-17.556c0-4.4171 0.054-6.2241 0.12008-4.0156 0.066 2.2086 0.066 5.8226 0 8.0311s-0.12008 0.40156-0.12008-4.0156zm4.6273-40.971c0.26965-0.10791 0.59183-0.0946 0.71595 0.0295 0.12413 0.12412-0.0965 0.21241-0.49027 0.19619-0.43515-0.0179-0.52367-0.10644-0.22568-0.22568zm13.798 8e-3c0.25681-0.10363 0.67704-0.10363 0.93385 0 0.25681 0.10362 0.0467 0.18841-0.46693 0.18841-0.51362 0-0.72373-0.0848-0.46692-0.18841zm79.284-32.392c0-0.0776 0.29417-0.37173 0.6537-0.6537 0.59246-0.46463 0.60567-0.45142 0.14103 0.14104-0.48798 0.62222-0.79473 0.8201-0.79473 0.51266zm-170.9-3.3142-2.6048-2.7082 2.7082 2.6048c2.5154 2.4193 2.8788 2.8116 2.6048 2.8116-0.0569 0-1.2755-1.2187-2.7082-2.7082zm145.13-23.581c0-0.07757 0.29417-0.37173 0.6537-0.6537 0.59246-0.46464 0.60567-0.45142 0.14103 0.14103-0.48798 0.62222-0.79473 0.8201-0.79473 0.51266zm8.0311-8.0769c0.37186-0.4109 0.76015-0.74708 0.86287-0.74708 0.10273 0-0.11747 0.33619-0.48933 0.74708-0.37185 0.4109-0.76014 0.74708-0.86287 0.74708-0.10272 0 0.11748-0.33619 0.48933-0.74708zm-0.93385-37.122c0-0.07757 0.29416-0.37173 0.6537-0.6537 0.59245-0.46464 0.60567-0.45142 0.14103 0.14103-0.48798 0.62222-0.79473 0.8201-0.79473 0.51266zm-188.98-11.657c0.01792-0.43515 0.10644-0.52367 0.22568-0.22568 0.1079 0.26965 0.09463 0.59183-0.02949 0.71595-0.12412 0.12412-0.21241-0.0965-0.19619-0.49027zm247.69-0.90272c0-0.51362 0.0848-0.72374 0.18841-0.46693 0.10363 0.25681 0.10363 0.67704 0 0.93385-0.10362 0.25681-0.18841 0.04669-0.18841-0.46693zm-247.69-8.0623c0.01792-0.43515 0.10644-0.52367 0.22568-0.22568 0.1079 0.26965 0.09463 0.59183-0.02949 0.71595-0.12412 0.12412-0.21241-0.0965-0.19619-0.49027zm247.66-3.7354c0.0179-0.43515 0.10644-0.52367 0.22569-0.22568 0.1079 0.26965 0.0946 0.59183-0.0295 0.71595-0.12413 0.12412-0.21241-0.0965-0.1962-0.49027zm-218.03-9.214-0.71159-0.84047 0.84047 0.71159c0.46226 0.39137 0.84047 0.76958 0.84047 0.84047 0 0.29893-0.30063 0.078241-0.96935-0.71159zm195.86-5.3836c0.25681-0.10362 0.67704-0.10362 0.93385 0s0.0467 0.18841-0.46692 0.18841-0.72374-0.084784-0.46693-0.18841zm-31.004-0.39637c0.6677-0.082861 1.7603-0.082861 2.428 0 0.66771 0.082861 0.1214 0.15066-1.214 0.15066-1.3354 0-1.8817-0.067796-1.214-0.15066zm8.604-0.0056064c1.0855-0.075695 2.7664-0.074899 3.7354 0.0017684 0.96899 0.076668 0.0809 0.1386-1.9736 0.13763-2.0545-9.7261e-4 -2.8473-0.063701-1.7618-0.1394z" fill="#fad34c"/>
 <path d="m39.409 264.04c-19.652-1.3174-34.459-14.031-38.303-32.888-0.98638-4.8391-1.0661-12.802-0.1743-17.416 1.5766-8.156 5.285-15.423 10.917-21.393 6.0328-6.3951 14.527-10.89 23.564-12.471 6.5649-1.1484 16.89-0.57515 23.607 1.3106 4.9058 1.3772 11.105 4.7023 15.44 8.2813l1.0588 0.87414-5.488 6.6217c-3.0184 3.6419-5.5993 6.6217-5.7354 6.6217s-1.2526-0.75508-2.4813-1.678c-2.9682-2.2296-6.4688-4.0361-9.8915-5.1048-2.4378-0.7612-3.5534-0.87383-8.5914-0.86743-5.3877 7e-3 -5.9636 0.0765-8.2913 1.003-12.835 5.1085-19.169 19.555-14.826 33.813 1.191 3.9103 3.1429 7.0852 6.3154 10.273 4.7193 4.7415 10.436 6.9921 17.796 7.0061 5.5465 0.0105 10.994-1.3347 15.049-3.716l1.6997-0.99817 0.10242-6.2311 0.10242-6.2311h-18.322v-15.315h35.486v35.81l-1.5875 1.2893c-4.5387 3.6861-12.364 7.7677-18.023 9.4013-6.4525 1.8624-12.397 2.4759-19.424 2.0048zm270.21 0.0117c-18.58-1.5082-31.174-17.2-29.08-36.233 1.9689-17.893 15.899-30.114 33.023-28.971 16.118 1.0761 26.376 11.955 28.24 29.948 0.21277 2.0545 0.27652 4.87 0.14166 6.2568l-0.2452 2.5214h-21.991c-12.095 0-21.991 0.0577-21.991 0.12829 0 0.85373 1.8128 4.9828 2.8542 6.5011 5.1516 7.5108 17.539 8.0911 26.22 1.2285l1.9541-1.5446 1.4193 1.2325c0.78061 0.67787 3.0452 2.6559 5.0324 4.3956l3.6131 3.1631-2.3366 2.3707c-6.773 6.8718-15.805 9.8999-26.855 9.003zm15.147-38.712c-0.71847-3.9656-3.0223-8.0476-5.6798-10.064-4.0845-3.0986-11.139-3.1537-15.327-0.11967-2.8384 2.0561-5.4252 6.488-5.9437 10.183l-0.19655 1.4008h27.401zm-214.06 38.371c-6.4504-1.1605-11.381-4.8602-14.122-10.595-2.371-4.9622-2.4437-5.8796-2.4437-30.841v-22.428h17.526l0.10864 20.078c0.0994 18.374 0.1656 20.205 0.77963 21.572 1.182 2.6322 2.4863 4.1668 4.4807 5.272 1.781 0.98694 2.2616 1.0782 5.681 1.0782 3.4267 0 3.8976-0.0899 5.6981-1.0875 2.2434-1.243 3.5919-2.8396 4.7187-5.587 0.75948-1.8518 0.79017-2.587 0.90231-21.621l0.1161-19.704h17.514v63.128h-17.556v-4.4825c0-2.4654-0.0667-4.4825-0.14817-4.4825-0.0815 0-1.3724 1.2626-2.8687 2.8057-4.8002 4.9505-8.8496 6.8807-14.913 7.1086-1.9518 0.0734-4.4149-0.0225-5.4736-0.21295zm114.26-5e-3c-12.264-2.203-20.917-11.383-23.461-24.89-0.85338-4.5301-0.55917-13.587 0.58036-17.865 2.3672-8.8879 7.9124-15.849 15.508-19.466 4.2467-2.0226 6.8508-2.5677 12.14-2.541 4.0698 0.0205 5.0476 0.15377 7.6166 1.0381 3.942 1.357 5.8805 2.5474 9.0494 5.5572 1.462 1.3886 2.7647 2.5248 2.8949 2.5248s0.23676-6.9759 0.23676-15.502v-15.502h17.556v85.914h-17.556v-4.4825c0-2.4654-0.1-4.4825-0.22211-4.4825-0.12216 0-1.3615 1.2187-2.754 2.7082-2.8457 3.0438-6.1221 5.1626-9.7242 6.2884-2.813 0.87921-8.8756 1.2368-11.865 0.69991zm15.441-16.032c5.7853-2.8481 9.124-8.7993 9.124-16.263 0-7.4387-3.3403-13.416-9.0748-16.239-6.1829-3.0438-14.099-1.1188-18.339 4.4599-4.0387 5.3134-4.7589 14.201-1.6815 20.748 0.96258 2.0478 3.9369 5.4135 5.8034 6.5671 4.1307 2.5529 9.8623 2.8473 14.168 0.72769zm130.82 15.869c-6.0203-0.98621-12.578-3.6154-17.919-7.1841l-2.4973-1.6687 2.7085-4.1688c4.6191-7.1095 4.7896-7.3407 5.2267-7.0874 0.23174 0.13431 1.0937 0.69773 1.9155 1.252 4.3358 2.9246 10.923 5.3797 15.563 5.8001 5.6699 0.51379 9.6514-1.3377 9.6514-4.4882 0-3.2972-1.7061-4.4461-10.833-7.2945-3.3899-1.058-7.1348-2.3156-8.322-2.7946-5.3007-2.1388-9.21-5.4538-11.201-9.4983-1.1043-2.2431-1.2198-2.8162-1.3417-6.653-0.10987-3.4598 4e-3 -4.652 0.64971-6.7764 2.6118-8.5987 11.057-13.887 22.16-13.878 4.3867 4e-3 7.3725 0.47482 11.978 1.8905 3.7571 1.1549 11.104 4.6456 11.104 5.2758 0 0.5803-6.4134 11.926-6.6724 11.803-0.13099-0.0618-1.6836-0.81858-3.4502-1.6818-4.778-2.3346-8.6578-3.5289-12.192-3.7529-4.9548-0.31414-7.942 1.3-7.942 4.2915 0 2.9559 2.4171 4.4902 12.514 7.9433 8.0222 2.7437 11.107 4.3083 14.257 7.2312 4.1191 3.8218 5.6199 8.2466 4.9244 14.518-1.1904 10.734-9.1247 16.821-22.544 17.296-2.8616 0.10132-5.6596-0.0341-7.7377-0.37453zm-202.38-32.132v-31.564h17.556v63.128h-17.556zm-0.37354-46.506v-7.8444h18.304v15.689h-18.304zm19.984-41.102c-12.012-0.98923-28.078-5.5177-40.431-11.397-18.359-8.7368-34.383-22.149-47.541-39.791-4.1367-5.5463-6.7933-9.8457-9.8248-15.9-8.2392-16.455-12.317-30.955-13.39-47.613-0.73188-11.358 0.26521-17.321 3.5759-21.384 3.4897-4.2827 7.3128-6.2307 12.771-6.5074 5.4867-0.27808 9.756 1.3257 13.187 4.9539 3.5515 3.7552 4.3212 6.1719 5.8297 18.304 1.8837 15.15 4.4268 24.352 9.6009 34.739 4.3399 8.7128 9.8136 16.046 17.71 23.727 12.15 11.819 24.889 18.832 41.749 22.985 6.9842 1.7203 9.8957 2.0352 18.815 2.0352 11.517 0 18.079-0.92216 26.731-3.7568 17.823-5.8391 35.424-20.076 51.464-41.628 17.869-24.009 33.808-47.101 34.549-50.053 0.51273-2.0429-1.3432-1.2954-24.313 9.7918-19.704 9.5108-30.361 13.098-34.886 11.742-3.6978-1.1079-7.8712-7.1896-8.7268-12.717-0.69576-4.495 0.97134-10.387 4.1039-14.504 1.5924-2.0928 5.1168-4.4884 7.8871-5.361 3.3702-1.0615 13.714-1.3751 34.057-1.0326 22.88 0.38526 27.874 1.2169 31.039 5.1694 1.5017 1.8754 2.1378 4.8615 2.4124 11.324 0.81221 19.116-3.067 38.073-11.404 55.731-11.035 23.372-28.486 42.082-51.746 55.481-13.715 7.9007-31.826 13.828-46.697 15.284-5.713 0.55914-21.575 0.78506-26.521 0.37772zm77.262-102.92c-0.35428-0.92324 1.779-2.8205 5.9685-5.3081 6.9715-4.1395 28.879-15.939 28.085-15.126-0.20545 0.21015-4.6599 3.2374-9.8988 6.7272-5.2389 3.4898-11.458 7.7366-13.821 9.4375-6.1391 4.4194-9.7098 5.8947-10.334 4.2695z" fill="#fbd13f"/>
</svg>
